<?xml version="1.0" encoding="utf-8"?>
<!-- Generator: Adobe Illustrator 16.0.0, SVG Export Plug-In . SVG Version: 6.00 Build 0)  -->
<!DOCTYPE svg PUBLIC "-//W3C//DTD SVG 1.1//EN" "http://www.w3.org/Graphics/SVG/1.1/DTD/svg11.dtd">
<svg version="1.1" id="Layer_1" xmlns="http://www.w3.org/2000/svg" xmlns:xlink="http://www.w3.org/1999/xlink" x="0px" y="0px"
	 width="381.333px" height="381.333px" viewBox="0 0 381.333 381.333" enable-background="new 0 0 381.333 381.333"
	 xml:space="preserve">
<g>
	<circle fill="#D3222B" cx="190.667" cy="190.667" r="190.667"/>
	<g>
		<path fill="#FFFFFF" d="M190.948,291.317c-10.969,0-21.893-0.338-32.763-1.01c-10.874-0.677-22.182-2.26-33.917-4.763V91.566
			c9.237-1.732,19.34-3.031,30.309-3.897c10.969-0.866,21.167-1.299,30.598-1.299c12.701,0,24.391,0.916,35.072,2.742
			c10.681,1.832,19.868,4.957,27.566,9.381c7.695,4.429,13.712,10.248,18.042,17.464c4.329,7.216,6.494,16.12,6.494,26.701
			c0,15.975-7.699,28.577-23.093,37.814c12.701,4.813,21.361,11.357,25.979,19.629c4.618,8.276,6.928,17.608,6.928,28
			c0,20.978-7.649,36.759-22.948,47.34C243.917,286.027,221.158,291.317,190.948,291.317z M168.144,167.195h21.938
			c13.855,0,23.764-1.777,29.732-5.34c5.962-3.559,8.948-9.282,8.948-17.175c0-8.083-3.081-13.756-9.237-17.031
			c-6.161-3.27-15.204-4.907-27.134-4.907c-3.852,0-7.988,0.049-12.412,0.144c-4.429,0.1-8.371,0.338-11.835,0.722V167.195z
			 M168.144,201.545v51.67c3.27,0.388,6.829,0.677,10.68,0.866c3.847,0.194,8.083,0.289,12.701,0.289
			c13.467,0,24.341-1.921,32.618-5.773c8.272-3.847,12.413-10.969,12.413-21.36c0-9.237-3.464-15.827-10.392-19.773
			c-6.929-3.942-16.842-5.917-29.732-5.917H168.144z"/>
	</g>
</g>
</svg>
